<mxfile host="65bd71144e">
    <diagram id="C5RBs43oDa-KdzZeNtuy" name="Page-1">
        <mxGraphModel dx="2187" dy="2183" grid="1" gridSize="10" guides="1" tooltips="1" connect="1" arrows="1" fold="1" page="1" pageScale="1" pageWidth="1654" pageHeight="1169" math="0" shadow="0">
            <root>
                <mxCell id="WIyWlLk6GJQsqaUBKTNV-0"/>
                <mxCell id="WIyWlLk6GJQsqaUBKTNV-1" parent="WIyWlLk6GJQsqaUBKTNV-0"/>
                <mxCell id="37" style="edgeStyle=none;html=1;exitX=1.038;exitY=0.788;exitDx=0;exitDy=0;entryX=0;entryY=0.5;entryDx=0;entryDy=0;exitPerimeter=0;" edge="1" parent="WIyWlLk6GJQsqaUBKTNV-1" source="40" target="76">
                    <mxGeometry relative="1" as="geometry">
                        <Array as="points"/>
                    </mxGeometry>
                </mxCell>
                <mxCell id="38" value="Person" style="swimlane;fontStyle=2;align=center;verticalAlign=top;childLayout=stackLayout;horizontal=1;startSize=26;horizontalStack=0;resizeParent=1;resizeLast=0;collapsible=1;marginBottom=0;rounded=0;shadow=0;strokeWidth=1;" vertex="1" parent="WIyWlLk6GJQsqaUBKTNV-1">
                    <mxGeometry x="730" y="460" width="120" height="138" as="geometry">
                        <mxRectangle x="230" y="140" width="160" height="26" as="alternateBounds"/>
                    </mxGeometry>
                </mxCell>
                <mxCell id="39" value="name" style="text;align=left;verticalAlign=top;spacingLeft=4;spacingRight=4;overflow=hidden;rotatable=0;points=[[0,0.5],[1,0.5]];portConstraint=eastwest;" vertex="1" parent="38">
                    <mxGeometry y="26" width="120" height="26" as="geometry"/>
                </mxCell>
                <mxCell id="40" value="definition" style="text;align=left;verticalAlign=top;spacingLeft=4;spacingRight=4;overflow=hidden;rotatable=0;points=[[0,0.5],[1,0.5]];portConstraint=eastwest;rounded=0;shadow=0;html=0;" vertex="1" parent="38">
                    <mxGeometry y="52" width="120" height="26" as="geometry"/>
                </mxCell>
                <mxCell id="41" value="gender" style="text;align=left;verticalAlign=top;spacingLeft=4;spacingRight=4;overflow=hidden;rotatable=0;points=[[0,0.5],[1,0.5]];portConstraint=eastwest;rounded=0;shadow=0;html=0;" vertex="1" parent="38">
                    <mxGeometry y="78" width="120" height="26" as="geometry"/>
                </mxCell>
                <mxCell id="42" value="death date" style="text;align=left;verticalAlign=top;spacingLeft=4;spacingRight=4;overflow=hidden;rotatable=0;points=[[0,0.5],[1,0.5]];portConstraint=eastwest;rounded=0;shadow=0;html=0;" vertex="1" parent="38">
                    <mxGeometry y="104" width="120" height="26" as="geometry"/>
                </mxCell>
                <mxCell id="43" value="Geographical place" style="swimlane;fontStyle=2;align=center;verticalAlign=top;childLayout=stackLayout;horizontal=1;startSize=26;horizontalStack=0;resizeParent=1;resizeLast=0;collapsible=1;marginBottom=0;rounded=0;shadow=0;strokeWidth=1;" vertex="1" parent="WIyWlLk6GJQsqaUBKTNV-1">
                    <mxGeometry x="440" y="191" width="120" height="138" as="geometry">
                        <mxRectangle x="230" y="140" width="160" height="26" as="alternateBounds"/>
                    </mxGeometry>
                </mxCell>
                <mxCell id="44" value="name" style="text;align=left;verticalAlign=top;spacingLeft=4;spacingRight=4;overflow=hidden;rotatable=0;points=[[0,0.5],[1,0.5]];portConstraint=eastwest;" vertex="1" parent="43">
                    <mxGeometry y="26" width="120" height="26" as="geometry"/>
                </mxCell>
                <mxCell id="45" value="definition" style="text;align=left;verticalAlign=top;spacingLeft=4;spacingRight=4;overflow=hidden;rotatable=0;points=[[0,0.5],[1,0.5]];portConstraint=eastwest;rounded=0;shadow=0;html=0;" vertex="1" parent="43">
                    <mxGeometry y="52" width="120" height="26" as="geometry"/>
                </mxCell>
                <mxCell id="46" value="longitude" style="text;align=left;verticalAlign=top;spacingLeft=4;spacingRight=4;overflow=hidden;rotatable=0;points=[[0,0.5],[1,0.5]];portConstraint=eastwest;rounded=0;shadow=0;html=0;" vertex="1" parent="43">
                    <mxGeometry y="78" width="120" height="26" as="geometry"/>
                </mxCell>
                <mxCell id="47" value="latitude" style="text;align=left;verticalAlign=top;spacingLeft=4;spacingRight=4;overflow=hidden;rotatable=0;points=[[0,0.5],[1,0.5]];portConstraint=eastwest;rounded=0;shadow=0;html=0;" vertex="1" parent="43">
                    <mxGeometry y="104" width="120" height="26" as="geometry"/>
                </mxCell>
                <mxCell id="48" value="" style="endArrow=classic;html=1;entryX=0.5;entryY=1;entryDx=0;entryDy=0;exitX=-0.053;exitY=1.128;exitDx=0;exitDy=0;exitPerimeter=0;" edge="1" parent="WIyWlLk6GJQsqaUBKTNV-1" source="39" target="43">
                    <mxGeometry relative="1" as="geometry">
                        <mxPoint x="360" y="529.3142857142857" as="sourcePoint"/>
                        <mxPoint x="620" y="348" as="targetPoint"/>
                        <Array as="points"/>
                    </mxGeometry>
                </mxCell>
                <mxCell id="49" value="1" style="edgeLabel;html=1;align=center;verticalAlign=middle;resizable=0;points=[];" vertex="1" connectable="0" parent="48">
                    <mxGeometry x="0.8885" y="-1" relative="1" as="geometry">
                        <mxPoint x="15.55" y="-11.69" as="offset"/>
                    </mxGeometry>
                </mxCell>
                <mxCell id="50" value="Label" style="endArrow=none;html=1;exitX=0.25;exitY=1;exitDx=0;exitDy=0;entryX=0.25;entryY=0;entryDx=0;entryDy=0;endFill=0;startArrow=classic;startFill=1;" edge="1" parent="WIyWlLk6GJQsqaUBKTNV-1" source="38" target="61">
                    <mxGeometry relative="1" as="geometry">
                        <mxPoint x="660" y="530" as="sourcePoint"/>
                        <mxPoint x="820" y="530" as="targetPoint"/>
                        <Array as="points">
                            <mxPoint x="730" y="680"/>
                        </Array>
                    </mxGeometry>
                </mxCell>
                <mxCell id="51" value="is pursuit by" style="edgeLabel;resizable=0;html=1;align=center;verticalAlign=middle;" connectable="0" vertex="1" parent="50">
                    <mxGeometry relative="1" as="geometry"/>
                </mxCell>
                <mxCell id="52" value="1" style="edgeLabel;resizable=0;html=1;align=left;verticalAlign=bottom;" connectable="0" vertex="1" parent="50">
                    <mxGeometry x="-1" relative="1" as="geometry"/>
                </mxCell>
                <mxCell id="53" value="0..n" style="edgeLabel;resizable=0;html=1;align=right;verticalAlign=bottom;" connectable="0" vertex="1" parent="50">
                    <mxGeometry x="1" relative="1" as="geometry">
                        <mxPoint x="3" as="offset"/>
                    </mxGeometry>
                </mxCell>
                <mxCell id="54" value="Occupation" style="swimlane;fontStyle=2;align=center;verticalAlign=top;childLayout=stackLayout;horizontal=1;startSize=40;horizontalStack=0;resizeParent=1;resizeLast=0;collapsible=1;marginBottom=0;rounded=0;shadow=0;strokeWidth=1;" vertex="1" parent="WIyWlLk6GJQsqaUBKTNV-1">
                    <mxGeometry x="480.0000000000001" y="1001" width="110" height="168" as="geometry">
                        <mxRectangle x="230" y="140" width="160" height="26" as="alternateBounds"/>
                    </mxGeometry>
                </mxCell>
                <mxCell id="55" value="name" style="text;align=left;verticalAlign=top;spacingLeft=4;spacingRight=4;overflow=hidden;rotatable=0;points=[[0,0.5],[1,0.5]];portConstraint=eastwest;" vertex="1" parent="54">
                    <mxGeometry y="40" width="110" height="26" as="geometry"/>
                </mxCell>
                <mxCell id="56" value="" style="endArrow=classic;html=1;entryX=0.5;entryY=1;entryDx=0;entryDy=0;exitX=0.994;exitY=1.122;exitDx=0;exitDy=0;exitPerimeter=0;" edge="1" parent="54" source="60" target="54">
                    <mxGeometry relative="1" as="geometry">
                        <mxPoint x="160" y="80" as="sourcePoint"/>
                        <mxPoint x="-30" y="140" as="targetPoint"/>
                        <Array as="points">
                            <mxPoint x="190" y="95"/>
                            <mxPoint x="190" y="200"/>
                            <mxPoint x="55" y="200"/>
                        </Array>
                    </mxGeometry>
                </mxCell>
                <mxCell id="57" value="specializes occupation" style="edgeLabel;resizable=0;html=1;align=center;verticalAlign=middle;" connectable="0" vertex="1" parent="56">
                    <mxGeometry relative="1" as="geometry">
                        <mxPoint x="-70" y="-1.0099999999999998" as="offset"/>
                    </mxGeometry>
                </mxCell>
                <mxCell id="58" value="0..n" style="edgeLabel;html=1;align=center;verticalAlign=middle;resizable=0;points=[];" vertex="1" connectable="0" parent="56">
                    <mxGeometry x="-0.8808" y="-1" relative="1" as="geometry">
                        <mxPoint x="-0.17999999999999972" y="-11" as="offset"/>
                    </mxGeometry>
                </mxCell>
                <mxCell id="59" value="0..n" style="edgeLabel;html=1;align=center;verticalAlign=middle;resizable=0;points=[];" vertex="1" connectable="0" parent="56">
                    <mxGeometry x="0.8885" y="-1" relative="1" as="geometry">
                        <mxPoint x="-26" y="2.4400000000000013" as="offset"/>
                    </mxGeometry>
                </mxCell>
                <mxCell id="60" value="definition" style="text;align=left;verticalAlign=top;spacingLeft=4;spacingRight=4;overflow=hidden;rotatable=0;points=[[0,0.5],[1,0.5]];portConstraint=eastwest;rounded=0;shadow=0;html=0;" vertex="1" parent="54">
                    <mxGeometry y="66" width="110" height="26" as="geometry"/>
                </mxCell>
                <mxCell id="61" value="Projets" style="swimlane;fontStyle=2;align=center;verticalAlign=top;childLayout=stackLayout;horizontal=1;startSize=26;horizontalStack=0;resizeParent=1;resizeLast=0;collapsible=1;marginBottom=0;rounded=0;shadow=0;strokeWidth=1;" vertex="1" parent="WIyWlLk6GJQsqaUBKTNV-1">
                    <mxGeometry x="670" y="790" width="110" height="138" as="geometry">
                        <mxRectangle x="230" y="140" width="160" height="26" as="alternateBounds"/>
                    </mxGeometry>
                </mxCell>
                <mxCell id="62" value="lieu" style="text;html=1;align=center;verticalAlign=middle;resizable=0;points=[];autosize=1;strokeColor=none;fillColor=none;" vertex="1" parent="61">
                    <mxGeometry y="26" width="110" height="30" as="geometry"/>
                </mxCell>
                <mxCell id="63" value="type" style="text;align=left;verticalAlign=top;spacingLeft=4;spacingRight=4;overflow=hidden;rotatable=0;points=[[0,0.5],[1,0.5]];portConstraint=eastwest;" vertex="1" parent="61">
                    <mxGeometry y="56" width="110" height="26" as="geometry"/>
                </mxCell>
                <mxCell id="64" value="population cible" style="text;align=left;verticalAlign=top;spacingLeft=4;spacingRight=4;overflow=hidden;rotatable=0;points=[[0,0.5],[1,0.5]];portConstraint=eastwest;rounded=0;shadow=0;html=0;" vertex="1" parent="61">
                    <mxGeometry y="82" width="110" height="26" as="geometry"/>
                </mxCell>
                <mxCell id="65" style="edgeStyle=elbowEdgeStyle;rounded=0;orthogonalLoop=1;jettySize=auto;elbow=vertical;html=1;exitX=0;exitY=0.5;exitDx=0;exitDy=0;" edge="1" parent="61" source="64" target="64">
                    <mxGeometry relative="1" as="geometry"/>
                </mxCell>
                <mxCell id="66" value="reconnaissance" style="text;html=1;align=center;verticalAlign=middle;resizable=0;points=[];autosize=1;strokeColor=none;fillColor=none;" vertex="1" parent="61">
                    <mxGeometry y="108" width="110" height="30" as="geometry"/>
                </mxCell>
                <mxCell id="67" value="Label" style="endArrow=none;html=1;exitX=0.5;exitY=0;exitDx=0;exitDy=0;entryX=-0.031;entryY=0.079;entryDx=0;entryDy=0;startArrow=classic;startFill=1;endFill=0;entryPerimeter=0;" edge="1" parent="WIyWlLk6GJQsqaUBKTNV-1" source="54" target="66">
                    <mxGeometry relative="1" as="geometry">
                        <mxPoint x="861.0799999999997" y="552.8879999999999" as="sourcePoint"/>
                        <mxPoint x="1000" y="635" as="targetPoint"/>
                    </mxGeometry>
                </mxCell>
                <mxCell id="68" value="is pursuit of" style="edgeLabel;resizable=0;html=1;align=center;verticalAlign=middle;" connectable="0" vertex="1" parent="67">
                    <mxGeometry relative="1" as="geometry"/>
                </mxCell>
                <mxCell id="69" value="1" style="edgeLabel;resizable=0;html=1;align=left;verticalAlign=bottom;" connectable="0" vertex="1" parent="67">
                    <mxGeometry x="-1" relative="1" as="geometry">
                        <mxPoint x="-20" as="offset"/>
                    </mxGeometry>
                </mxCell>
                <mxCell id="70" value="0..n" style="edgeLabel;resizable=0;html=1;align=right;verticalAlign=bottom;" connectable="0" vertex="1" parent="67">
                    <mxGeometry x="1" relative="1" as="geometry">
                        <mxPoint x="-50" y="75" as="offset"/>
                    </mxGeometry>
                </mxCell>
                <mxCell id="71" value="" style="endArrow=classic;html=1;entryX=1;entryY=0.5;entryDx=0;entryDy=0;exitX=0.5;exitY=0;exitDx=0;exitDy=0;" edge="1" parent="WIyWlLk6GJQsqaUBKTNV-1" source="75" target="46">
                    <mxGeometry relative="1" as="geometry">
                        <mxPoint x="1350" y="264" as="sourcePoint"/>
                        <mxPoint x="1160" y="324" as="targetPoint"/>
                        <Array as="points"/>
                    </mxGeometry>
                </mxCell>
                <mxCell id="72" value="is located in" style="edgeLabel;resizable=0;html=1;align=center;verticalAlign=middle;" connectable="0" vertex="1" parent="71">
                    <mxGeometry relative="1" as="geometry">
                        <mxPoint x="-70" y="-1.0099999999999998" as="offset"/>
                    </mxGeometry>
                </mxCell>
                <mxCell id="73" value="0..n" style="edgeLabel;html=1;align=center;verticalAlign=middle;resizable=0;points=[];" vertex="1" connectable="0" parent="71">
                    <mxGeometry x="-0.8808" y="-1" relative="1" as="geometry">
                        <mxPoint x="24" y="53.45" as="offset"/>
                    </mxGeometry>
                </mxCell>
                <mxCell id="74" value="1" style="edgeLabel;html=1;align=center;verticalAlign=middle;resizable=0;points=[];" vertex="1" connectable="0" parent="71">
                    <mxGeometry x="0.8885" y="-1" relative="1" as="geometry">
                        <mxPoint x="-26" y="31" as="offset"/>
                    </mxGeometry>
                </mxCell>
                <mxCell id="75" value="Organisation" style="swimlane;fontStyle=2;align=center;verticalAlign=top;childLayout=stackLayout;horizontal=1;startSize=40;horizontalStack=0;resizeParent=1;resizeLast=0;collapsible=1;marginBottom=0;rounded=0;shadow=0;strokeWidth=1;" vertex="1" parent="WIyWlLk6GJQsqaUBKTNV-1">
                    <mxGeometry x="960" y="478" width="110" height="120" as="geometry">
                        <mxRectangle x="230" y="140" width="160" height="26" as="alternateBounds"/>
                    </mxGeometry>
                </mxCell>
                <mxCell id="76" value="name" style="text;align=left;verticalAlign=top;spacingLeft=4;spacingRight=4;overflow=hidden;rotatable=0;points=[[0,0.5],[1,0.5]];portConstraint=eastwest;" vertex="1" parent="75">
                    <mxGeometry y="40" width="110" height="26" as="geometry"/>
                </mxCell>
                <mxCell id="77" value="definition" style="text;align=left;verticalAlign=top;spacingLeft=4;spacingRight=4;overflow=hidden;rotatable=0;points=[[0,0.5],[1,0.5]];portConstraint=eastwest;rounded=0;shadow=0;html=0;" vertex="1" parent="75">
                    <mxGeometry y="66" width="110" height="26" as="geometry"/>
                </mxCell>
                <mxCell id="78" value="takes place with" style="endArrow=classic;html=1;entryX=0.5;entryY=1;entryDx=0;entryDy=0;" edge="1" parent="WIyWlLk6GJQsqaUBKTNV-1" target="75">
                    <mxGeometry relative="1" as="geometry">
                        <mxPoint x="790" y="870" as="sourcePoint"/>
                        <mxPoint x="1100" y="635" as="targetPoint"/>
                    </mxGeometry>
                </mxCell>
                <mxCell id="79" value="0..n" style="edgeLabel;resizable=0;html=1;align=left;verticalAlign=bottom;" connectable="0" vertex="1" parent="78">
                    <mxGeometry x="-1" relative="1" as="geometry">
                        <mxPoint x="-20" as="offset"/>
                    </mxGeometry>
                </mxCell>
                <mxCell id="80" value="0..1" style="edgeLabel;resizable=0;html=1;align=right;verticalAlign=bottom;" connectable="0" vertex="1" parent="78">
                    <mxGeometry x="1" relative="1" as="geometry">
                        <mxPoint x="-24.97" y="19.98" as="offset"/>
                    </mxGeometry>
                </mxCell>
                <mxCell id="81" value="Union" style="swimlane;fontStyle=2;align=center;verticalAlign=top;childLayout=stackLayout;horizontal=1;startSize=26;horizontalStack=0;resizeParent=1;resizeLast=0;collapsible=1;marginBottom=0;rounded=0;shadow=0;strokeWidth=1;" vertex="1" parent="WIyWlLk6GJQsqaUBKTNV-1">
                    <mxGeometry x="480" y="580" width="120" height="138" as="geometry">
                        <mxRectangle x="230" y="140" width="160" height="26" as="alternateBounds"/>
                    </mxGeometry>
                </mxCell>
                <mxCell id="82" value="name" style="text;align=left;verticalAlign=top;spacingLeft=4;spacingRight=4;overflow=hidden;rotatable=0;points=[[0,0.5],[1,0.5]];portConstraint=eastwest;" vertex="1" parent="81">
                    <mxGeometry y="26" width="120" height="26" as="geometry"/>
                </mxCell>
                <mxCell id="83" value="beggin date" style="text;align=left;verticalAlign=top;spacingLeft=4;spacingRight=4;overflow=hidden;rotatable=0;points=[[0,0.5],[1,0.5]];portConstraint=eastwest;rounded=0;shadow=0;html=0;" vertex="1" parent="81">
                    <mxGeometry y="52" width="120" height="26" as="geometry"/>
                </mxCell>
                <mxCell id="84" value="end date" style="text;align=left;verticalAlign=top;spacingLeft=4;spacingRight=4;overflow=hidden;rotatable=0;points=[[0,0.5],[1,0.5]];portConstraint=eastwest;rounded=0;shadow=0;html=0;" vertex="1" parent="81">
                    <mxGeometry y="78" width="120" height="26" as="geometry"/>
                </mxCell>
                <mxCell id="85" style="edgeStyle=none;html=1;exitX=0;exitY=0.5;exitDx=0;exitDy=0;" edge="1" parent="WIyWlLk6GJQsqaUBKTNV-1" source="40">
                    <mxGeometry relative="1" as="geometry">
                        <mxPoint x="610" y="650" as="targetPoint"/>
                    </mxGeometry>
                </mxCell>
                <mxCell id="86" value="&lt;font style=&quot;font-size: 7px;&quot;&gt;married to&lt;/font&gt;" style="text;html=1;align=center;verticalAlign=middle;resizable=0;points=[];autosize=1;strokeColor=none;fillColor=none;rotation=-45;" vertex="1" parent="WIyWlLk6GJQsqaUBKTNV-1">
                    <mxGeometry x="630" y="568" width="60" height="30" as="geometry"/>
                </mxCell>
                <mxCell id="87" value="0...n" style="text;html=1;align=center;verticalAlign=middle;resizable=0;points=[];autosize=1;strokeColor=none;fillColor=none;fontSize=7;" vertex="1" parent="WIyWlLk6GJQsqaUBKTNV-1">
                    <mxGeometry x="695" y="540" width="40" height="20" as="geometry"/>
                </mxCell>
                <mxCell id="88" value="1...n" style="text;html=1;align=center;verticalAlign=middle;resizable=0;points=[];autosize=1;strokeColor=none;fillColor=none;fontSize=7;" vertex="1" parent="WIyWlLk6GJQsqaUBKTNV-1">
                    <mxGeometry x="600" y="650" width="40" height="20" as="geometry"/>
                </mxCell>
            </root>
        </mxGraphModel>
    </diagram>
</mxfile>